<svg version="1.1" xmlns="http://www.w3.org/2000/svg" xmlns:xlink="http://www.w3.org/1999/xlink" width="730" height="1099"><defs/><g><g/><g/><g/><g/><g/><g/><g/><g/><g/><g/><g/><g><rect fill="white" stroke="none" x="0" y="0" width="730" height="1099"/></g><g><text fill="black" stroke="none" font-family="sans-serif" font-size="16.5pt" font-style="normal" font-weight="normal" text-decoration="normal" x="326.1249403662923" y="26.3876361" text-anchor="start" dominant-baseline="alphabetic" xml:space="preserve">Sign Up</text></g><g/><g><path fill="none" stroke="black" paint-order="fill stroke markers" d=" M 79.1629083 138.71100709899997 L 79.1629083 1099.220961139" stroke-miterlimit="10" stroke-width="1.4659797833333332" stroke-dasharray="13.532121076923076,5.863919133333333"/><path fill="none" stroke="black" paint-order="fill stroke markers" d=" M 414.6701278596354 138.71100709899997 L 414.6701278596354 1099.220961139" stroke-miterlimit="10" stroke-width="1.4659797833333332" stroke-dasharray="13.532121076923076,5.863919133333333"/><path fill="none" stroke="black" paint-order="fill stroke markers" d=" M 642.5577639596354 138.71100709899997 L 642.5577639596354 1099.220961139" stroke-miterlimit="10" stroke-width="1.4659797833333332" stroke-dasharray="13.532121076923076,5.863919133333333"/></g><g><g><path fill="white" stroke="black" paint-order="fill stroke markers" d=" M 89.190210018 64.29787329699998 A 10.027301717999999 10.027301717999999 0 1 1 89.19020500434955 64.2878459969532 M 79.1629083 74.32517501499997 L 79.1629083 95.78711904299996 M 66.496842972 82.06554827099998 L 91.828973628 82.06554827099998 M 79.1629083 95.78711904299996 L 66.496842972 115.84172247899997 M 79.1629083 95.78711904299996 L 91.828973628 115.84172247899997" stroke-miterlimit="10" stroke-width="2.990598758" stroke-dasharray=""/></g><g><g/><text fill="black" stroke="none" font-family="sans-serif" font-size="11pt" font-style="normal" font-weight="normal" text-decoration="normal" x="49.82957433088379" y="133.43347987899998" text-anchor="start" dominant-baseline="alphabetic" xml:space="preserve">API User</text></g><g><path fill="white" stroke="black" paint-order="fill stroke markers" d=" M 424.6974295776354 64.29787329699998 A 10.027301717999999 10.027301717999999 0 1 1 424.69742456398495 64.2878459969532 M 414.6701278596354 74.32517501499997 L 414.6701278596354 95.78711904299996 M 402.0040625316354 82.06554827099998 L 427.3361931876354 82.06554827099998 M 414.6701278596354 95.78711904299996 L 402.0040625316354 115.84172247899997 M 414.6701278596354 95.78711904299996 L 427.3361931876354 115.84172247899997" stroke-miterlimit="10" stroke-width="2.990598758" stroke-dasharray=""/></g><g><g/><text fill="black" stroke="none" font-family="sans-serif" font-size="11pt" font-style="normal" font-weight="normal" text-decoration="normal" x="367.62012862257484" y="133.43347987899998" text-anchor="start" dominant-baseline="alphabetic" xml:space="preserve">Tumelo Admin</text></g><path fill="none" stroke="none"/><g><path fill="white" stroke="black" paint-order="fill stroke markers" d=" M 585.4207079435748 91.21326211899998 L 699.694819975696 91.21326211899998 L 699.694819975696 138.71100709899997 L 585.4207079435748 138.71100709899997 L 585.4207079435748 91.21326211899998 Z" stroke-miterlimit="10" stroke-width="2.814681184" stroke-dasharray=""/></g><g><g/><text fill="black" stroke="none" font-family="sans-serif" font-size="11pt" font-style="normal" font-weight="normal" text-decoration="normal" x="604.5077647225748" y="121.119249699" text-anchor="start" dominant-baseline="alphabetic" xml:space="preserve">Tumelo API</text></g></g><g><path fill="white" stroke="black" paint-order="fill stroke markers" d=" M 405.8742491596354 244.26155149899995 L 423.4660065596354 244.26155149899995 L 423.4660065596354 293.51847221899993 L 405.8742491596354 293.51847221899993 L 405.8742491596354 244.26155149899995" stroke-miterlimit="10" stroke-width="1.4659797833333332" stroke-dasharray=""/><path fill="white" stroke="black" paint-order="fill stroke markers" d=" M 633.7618852596354 483.5094521389999 L 651.3536426596354 483.5094521389999 L 651.3536426596354 532.766372859 L 633.7618852596354 532.766372859 L 633.7618852596354 483.5094521389999" stroke-miterlimit="10" stroke-width="1.4659797833333332" stroke-dasharray=""/><path fill="white" stroke="black" paint-order="fill stroke markers" d=" M 633.7618852596354 722.757352779 L 651.3536426596354 722.757352779 L 651.3536426596354 772.0142734990001 L 633.7618852596354 772.0142734990001 L 633.7618852596354 722.757352779" stroke-miterlimit="10" stroke-width="1.4659797833333332" stroke-dasharray=""/><path fill="white" stroke="black" paint-order="fill stroke markers" d=" M 633.7618852596354 962.005253419 L 651.3536426596354 962.005253419 L 651.3536426596354 1011.2621741390001 L 633.7618852596354 1011.2621741390001 L 633.7618852596354 962.005253419" stroke-miterlimit="10" stroke-width="1.4659797833333332" stroke-dasharray=""/><g><g><rect fill="white" stroke="none" x="153.27981664569657" y="221.39226687899995" width="178.47752416824218" height="22.86928462"/></g><text fill="black" stroke="none" font-family="sans-serif" font-size="11pt" font-style="normal" font-weight="normal" text-decoration="normal" x="155.91858025569658" y="237.22484853899996" text-anchor="start" dominant-baseline="alphabetic" xml:space="preserve">Request access to Tumelo</text></g><g><path fill="none" stroke="black" paint-order="fill stroke markers" d=" M 79.1629083 244.26155149899995 L 402.94228959296873 244.26155149899995" stroke-miterlimit="10" stroke-width="1.4659797833333332" stroke-dasharray=""/><g transform="translate(405.8742491596354,244.26155149899995) translate(-405.8742491596354,-244.26155149899995)"><path fill="black" stroke="none" paint-order="stroke fill markers" d=" M 391.214451326302 236.93165258233327 L 405.8742491596354 244.26155149899995 L 391.214451326302 251.59145041566663 Z"/></g></g><g><g><rect fill="white" stroke="none" x="99.9798212233333" y="270.64918759899996" width="285.0775150129688" height="22.86928462"/></g><text fill="black" stroke="none" font-family="sans-serif" font-size="11pt" font-style="normal" font-weight="normal" text-decoration="normal" x="102.6185848333333" y="286.481769259" text-anchor="start" dominant-baseline="alphabetic" xml:space="preserve">Access credentials for development habitat</text></g><g><path fill="none" stroke="black" paint-order="fill stroke markers" d=" M 405.8742491596354 293.51847221899993 L 82.09486786666666 293.51847221899993" stroke-miterlimit="10" stroke-width="1.4659797833333332" stroke-dasharray=""/><g transform="translate(79.1629083,293.51847221899993) translate(-79.1629083,-293.51847221899993)"><path fill="black" stroke="none" paint-order="stroke fill markers" d=" M 93.82270613333333 286.1885733023333 L 79.1629083 293.51847221899993 L 93.82270613333333 300.8483711356666 Z"/></g></g><g><g><rect fill="white" stroke="none" x="288.4882427468685" y="393.79148939899994" width="144.74418676589843" height="22.86928462"/></g><text fill="black" stroke="none" font-family="sans-serif" font-size="11pt" font-style="normal" font-weight="normal" text-decoration="normal" x="291.1270063568685" y="409.62407105899996" text-anchor="start" dominant-baseline="alphabetic" xml:space="preserve">Acquire access token</text></g><g><path fill="none" stroke="black" paint-order="fill stroke markers" d=" M 79.1629083 416.6607740189999 L 639.6258043929687 416.6607740189999" stroke-miterlimit="10" stroke-width="1.4659797833333332" stroke-dasharray=""/><g transform="translate(642.5577639596354,416.6607740189999) translate(-642.5577639596354,-416.6607740189999)"><path fill="black" stroke="none" paint-order="stroke fill markers" d=" M 627.8979661263021 409.33087510233327 L 642.5577639596354 416.6607740189999 L 627.8979661263021 423.99067293566657 Z"/></g></g><path fill="white" stroke="black" paint-order="fill stroke markers" d=" M 63.330326639999996 443.0484101189999 L 642.5577639596354 443.0484101189999 L 658.3903456196354 458.88099177899994 L 658.3903456196354 483.5094521389999 L 63.330326639999996 483.5094521389999 L 63.330326639999996 443.0484101189999 M 642.5577639596354 443.0484101189999 L 642.5577639596354 458.88099177899994 L 658.3903456196354 458.88099177899994" stroke-miterlimit="10" stroke-width="1.4659797833333332" stroke-dasharray=""/><g><text fill="black" stroke="none" font-family="sans-serif" font-size="11pt" font-style="normal" font-weight="normal" text-decoration="normal" x="296.8603361298177" y="467.6768704789999" text-anchor="start" dominant-baseline="alphabetic" xml:space="preserve">POST /v1/authorize</text></g><g><g><rect fill="white" stroke="none" x="310.2069682833431" y="509.89708823899997" width="92.51085699294921" height="22.86928462"/></g><text fill="black" stroke="none" font-family="sans-serif" font-size="11pt" font-style="normal" font-weight="normal" text-decoration="normal" x="312.8457318933431" y="525.729669899" text-anchor="start" dominant-baseline="alphabetic" xml:space="preserve">Access token</text></g><g><path fill="none" stroke="black" paint-order="fill stroke markers" d=" M 633.7618852596354 532.766372859 L 82.09486786666666 532.766372859" stroke-miterlimit="10" stroke-width="1.4659797833333332" stroke-dasharray=""/><g transform="translate(79.1629083,532.766372859) translate(-79.1629083,-532.766372859)"><path fill="black" stroke="none" paint-order="stroke fill markers" d=" M 93.82270613333333 525.4364739423332 L 79.1629083 532.766372859 L 93.82270613333333 540.0962717756667 Z"/></g></g><g><g><rect fill="white" stroke="none" x="299.0549045815853" y="633.039390039" width="123.61086309646484" height="22.86928462"/></g><text fill="black" stroke="none" font-family="sans-serif" font-size="11pt" font-style="normal" font-weight="normal" text-decoration="normal" x="301.6936681915853" y="648.8719716989999" text-anchor="start" dominant-baseline="alphabetic" xml:space="preserve">Change password</text></g><g><path fill="none" stroke="black" paint-order="fill stroke markers" d=" M 79.1629083 655.908674659 L 639.6258043929687 655.908674659" stroke-miterlimit="10" stroke-width="1.4659797833333332" stroke-dasharray=""/><g transform="translate(642.5577639596354,655.908674659) translate(-642.5577639596354,-655.908674659)"><path fill="black" stroke="none" paint-order="stroke fill markers" d=" M 627.8979661263021 648.5787757423333 L 642.5577639596354 655.908674659 L 627.8979661263021 663.2385735756667 Z"/></g></g><path fill="white" stroke="black" paint-order="fill stroke markers" d=" M 63.330326639999996 682.296310759 L 642.5577639596354 682.296310759 L 658.3903456196354 698.128892419 L 658.3903456196354 722.757352779 L 63.330326639999996 722.757352779 L 63.330326639999996 682.296310759 M 642.5577639596354 682.296310759 L 642.5577639596354 698.128892419 L 658.3903456196354 698.128892419" stroke-miterlimit="10" stroke-width="1.4659797833333332" stroke-dasharray=""/><g><text fill="black" stroke="none" font-family="sans-serif" font-size="11pt" font-style="normal" font-weight="normal" text-decoration="normal" x="270.7603376556966" y="706.9247711190001" text-anchor="start" dominant-baseline="alphabetic" xml:space="preserve">POST /v1/changePassword</text></g><g><g><rect fill="white" stroke="none" x="320.77363393275715" y="749.144988879" width="71.37752569412109" height="22.86928462"/></g><text fill="black" stroke="none" font-family="sans-serif" font-size="11pt" font-style="normal" font-weight="normal" text-decoration="normal" x="323.41239754275716" y="764.977570539" text-anchor="start" dominant-baseline="alphabetic" xml:space="preserve">Response</text></g><g><path fill="none" stroke="black" paint-order="fill stroke markers" d=" M 633.7618852596354 772.0142734990001 L 82.09486786666666 772.0142734990001" stroke-miterlimit="10" stroke-width="1.4659797833333332" stroke-dasharray=""/><g transform="translate(79.1629083,772.0142734990001) translate(-79.1629083,-772.0142734990001)"><path fill="black" stroke="none" paint-order="stroke fill markers" d=" M 93.82270613333333 764.6843745823334 L 79.1629083 772.0142734990001 L 93.82270613333333 779.3441724156668 Z"/></g></g><path fill="white" stroke="black" paint-order="fill stroke markers" d=" M 63.330326639999996 872.287290679 L 642.5577639596354 872.287290679 L 658.3903456196354 888.1198723389999 L 658.3903456196354 912.748332699 L 63.330326639999996 912.748332699 L 63.330326639999996 872.287290679 M 642.5577639596354 872.287290679 L 642.5577639596354 888.1198723389999 L 658.3903456196354 888.1198723389999" stroke-miterlimit="10" stroke-width="1.4659797833333332" stroke-dasharray=""/><g><text fill="black" stroke="none" font-family="sans-serif" font-size="11pt" font-style="normal" font-weight="normal" text-decoration="normal" x="159.3603361298177" y="896.915751039" text-anchor="start" dominant-baseline="alphabetic" xml:space="preserve">repeat step 2 using new password when access token expires</text></g><g><g><rect fill="white" stroke="none" x="274.29030034511067" y="939.135968799" width="164.34419286941406" height="22.86928462"/></g><text fill="black" stroke="none" font-family="sans-serif" font-size="11pt" font-style="normal" font-weight="normal" text-decoration="normal" x="276.9290639551107" y="954.968550459" text-anchor="start" dominant-baseline="alphabetic" xml:space="preserve">Make request with token</text></g><g><path fill="none" stroke="black" paint-order="fill stroke markers" d=" M 79.1629083 962.005253419 L 630.8299256929687 962.005253419" stroke-miterlimit="10" stroke-width="1.4659797833333332" stroke-dasharray=""/><g transform="translate(633.7618852596354,962.005253419) translate(-633.7618852596354,-962.005253419)"><path fill="black" stroke="none" paint-order="stroke fill markers" d=" M 619.1020874263021 954.6753545023333 L 633.7618852596354 962.005253419 L 619.1020874263021 969.3351523356667 Z"/></g></g><g><g><rect fill="white" stroke="none" x="320.77363393275715" y="988.392889519" width="71.37752569412109" height="22.86928462"/></g><text fill="black" stroke="none" font-family="sans-serif" font-size="11pt" font-style="normal" font-weight="normal" text-decoration="normal" x="323.41239754275716" y="1004.225471179" text-anchor="start" dominant-baseline="alphabetic" xml:space="preserve">Response</text></g><g><path fill="none" stroke="black" paint-order="fill stroke markers" d=" M 633.7618852596354 1011.2621741390001 L 82.09486786666666 1011.2621741390001" stroke-miterlimit="10" stroke-width="1.4659797833333332" stroke-dasharray=""/><g transform="translate(79.1629083,1011.2621741390001) translate(-79.1629083,-1011.2621741390001)"><path fill="black" stroke="none" paint-order="stroke fill markers" d=" M 93.82270613333333 1003.9322752223334 L 79.1629083 1011.2621741390001 L 93.82270613333333 1018.5920730556668 Z"/></g></g><g><g/><path fill="none" stroke="black" paint-order="fill stroke markers" d=" M 17.591757400000006 173.89452189899998 L 476.2412787596354 173.89452189899998 L 476.2412787596354 319.90610831899994 L 17.591757400000006 319.90610831899994 L 17.591757400000006 173.89452189899998 Z" stroke-miterlimit="10" stroke-width="2.5131082" stroke-dasharray=""/><path fill="white" stroke="black" paint-order="fill stroke markers" d=" M 17.591757400000006 173.89452189899998 L 17.591757400000006 195.00463077899997 L 86.70860655058594 195.00463077899997 L 97.26366099058595 184.44957633899998 L 97.26366099058595 173.89452189899998 L 17.591757400000006 173.89452189899998" stroke-miterlimit="10" stroke-width="2.5131082" stroke-dasharray=""/><text fill="black" stroke="none" font-family="sans-serif" font-size="8.8pt" font-style="normal" font-weight="bold" text-decoration="normal" x="35.183514800000005" y="187.96792781899995" text-anchor="start" dominant-baseline="alphabetic" xml:space="preserve">step 1</text><text fill="black" stroke="none" font-family="sans-serif" font-size="8.8pt" font-style="normal" font-weight="bold" text-decoration="normal" x="114.85541839058595" y="187.96792781899995" text-anchor="start" dominant-baseline="alphabetic" xml:space="preserve">[Set up - via email]</text></g><g><g/><path fill="none" stroke="black" paint-order="fill stroke markers" d=" M 17.591757400000006 346.29374441899995 L 704.1289148596354 346.29374441899995 L 704.1289148596354 559.154008959 L 17.591757400000006 559.154008959 L 17.591757400000006 346.29374441899995 Z" stroke-miterlimit="10" stroke-width="2.5131082" stroke-dasharray=""/><path fill="white" stroke="black" paint-order="fill stroke markers" d=" M 17.591757400000006 346.29374441899995 L 17.591757400000006 367.40385329899993 L 86.70860655058594 367.40385329899993 L 97.26366099058595 356.84879885899994 L 97.26366099058595 346.29374441899995 L 17.591757400000006 346.29374441899995" stroke-miterlimit="10" stroke-width="2.5131082" stroke-dasharray=""/><text fill="black" stroke="none" font-family="sans-serif" font-size="8.8pt" font-style="normal" font-weight="bold" text-decoration="normal" x="35.183514800000005" y="360.3671503389999" text-anchor="start" dominant-baseline="alphabetic" xml:space="preserve">step 2</text><text fill="black" stroke="none" font-family="sans-serif" font-size="8.8pt" font-style="normal" font-weight="bold" text-decoration="normal" x="114.85541839058595" y="360.3671503389999" text-anchor="start" dominant-baseline="alphabetic" xml:space="preserve">[Acquire access token]</text></g><g><g/><path fill="none" stroke="black" paint-order="fill stroke markers" d=" M 17.591757400000006 585.541645059 L 704.1289148596354 585.541645059 L 704.1289148596354 798.4019095990001 L 17.591757400000006 798.4019095990001 L 17.591757400000006 585.541645059 Z" stroke-miterlimit="10" stroke-width="2.5131082" stroke-dasharray=""/><path fill="white" stroke="black" paint-order="fill stroke markers" d=" M 17.591757400000006 585.541645059 L 17.591757400000006 606.651753939 L 86.70860655058594 606.651753939 L 97.26366099058595 596.096699499 L 97.26366099058595 585.541645059 L 17.591757400000006 585.541645059" stroke-miterlimit="10" stroke-width="2.5131082" stroke-dasharray=""/><text fill="black" stroke="none" font-family="sans-serif" font-size="8.8pt" font-style="normal" font-weight="bold" text-decoration="normal" x="35.183514800000005" y="599.615050979" text-anchor="start" dominant-baseline="alphabetic" xml:space="preserve">step 3</text><text fill="black" stroke="none" font-family="sans-serif" font-size="8.8pt" font-style="normal" font-weight="bold" text-decoration="normal" x="114.85541839058595" y="599.615050979" text-anchor="start" dominant-baseline="alphabetic" xml:space="preserve">[Change password]</text></g><g><g/><path fill="none" stroke="black" paint-order="fill stroke markers" d=" M 17.591757400000006 824.7895456990001 L 704.1289148596354 824.7895456990001 L 704.1289148596354 1037.649810239 L 17.591757400000006 1037.649810239 L 17.591757400000006 824.7895456990001 Z" stroke-miterlimit="10" stroke-width="2.5131082" stroke-dasharray=""/><path fill="white" stroke="black" paint-order="fill stroke markers" d=" M 17.591757400000006 824.7895456990001 L 17.591757400000006 845.8996545790001 L 86.70860655058594 845.8996545790001 L 97.26366099058595 835.3446001390001 L 97.26366099058595 824.7895456990001 L 17.591757400000006 824.7895456990001" stroke-miterlimit="10" stroke-width="2.5131082" stroke-dasharray=""/><text fill="black" stroke="none" font-family="sans-serif" font-size="8.8pt" font-style="normal" font-weight="bold" text-decoration="normal" x="35.183514800000005" y="838.8629516190001" text-anchor="start" dominant-baseline="alphabetic" xml:space="preserve">step 4</text><text fill="black" stroke="none" font-family="sans-serif" font-size="8.8pt" font-style="normal" font-weight="bold" text-decoration="normal" x="114.85541839058595" y="838.8629516190001" text-anchor="start" dominant-baseline="alphabetic" xml:space="preserve">[Making a request]</text></g></g><g/><g/><g/></g></svg>