<svg version="1.1" xmlns="http://www.w3.org/2000/svg" xmlns:xlink="http://www.w3.org/1999/xlink" width="803" height="989"><defs/><g><g/><g/><g/><g/><g/><g/><g/><g/><g/><g/><g><rect fill="white" stroke="none" x="0" y="0" width="803" height="989"/></g><g><text fill="black" stroke="none" font-family="sans-serif" font-size="16.5pt" font-style="normal" font-weight="normal" text-decoration="normal" x="362.76629033687504" y="28.27246725" text-anchor="start" dominant-baseline="alphabetic" xml:space="preserve">Sign Up</text></g><g/><g><path fill="none" stroke="black" paint-order="fill stroke markers" d=" M 94.24155750000001 148.61893617750002 L 94.24155750000001 989.2536290775001" stroke-miterlimit="10" stroke-width="1.5706926250000002" stroke-dasharray="14.498701153846154,6.282770500000001"/><path fill="none" stroke="black" paint-order="fill stroke markers" d=" M 449.34080253125006 148.61893617750002 L 449.34080253125006 989.2536290775001" stroke-miterlimit="10" stroke-width="1.5706926250000002" stroke-dasharray="14.498701153846154,6.282770500000001"/><path fill="none" stroke="black" paint-order="fill stroke markers" d=" M 585.0523737656251 148.61893617750002 L 585.0523737656251 989.2536290775001" stroke-miterlimit="10" stroke-width="1.5706926250000002" stroke-dasharray="14.498701153846154,6.282770500000001"/><path fill="none" stroke="black" paint-order="fill stroke markers" d=" M 709.5586012987501 148.61893617750002 L 709.5586012987501 989.2536290775001" stroke-miterlimit="10" stroke-width="1.5706926250000002" stroke-dasharray="14.498701153846154,6.282770500000001"/></g><g><g><path fill="white" stroke="black" paint-order="fill stroke markers" d=" M 104.98509505500002 68.89057853250002 A 10.743537555 10.743537555 0 1 1 104.98508968323168 68.8798349967356 M 94.24155750000001 79.63411608750002 L 94.24155750000001 102.62905611750003 M 80.67077322000002 87.92737314750002 L 107.81234178000001 87.92737314750002 M 94.24155750000001 102.62905611750003 L 80.67077322000002 124.11613122750002 M 94.24155750000001 102.62905611750003 L 107.81234178000001 124.11613122750002" stroke-miterlimit="10" stroke-width="3.2042129550000005" stroke-dasharray=""/></g><g><g/><text fill="black" stroke="none" font-family="sans-serif" font-size="11pt" font-style="normal" font-weight="normal" text-decoration="normal" x="64.23423328125001" y="142.96444272750003" text-anchor="start" dominant-baseline="alphabetic" xml:space="preserve">API User</text></g><g><path fill="white" stroke="black" paint-order="fill stroke markers" d=" M 460.08434008625005 68.89057853250002 A 10.743537555 10.743537555 0 1 1 460.0843347144817 68.8798349967356 M 449.34080253125006 79.63411608750002 L 449.34080253125006 102.62905611750003 M 435.77001825125006 87.92737314750002 L 462.91158681125006 87.92737314750002 M 449.34080253125006 102.62905611750003 L 435.77001825125006 124.11613122750002 M 449.34080253125006 102.62905611750003 L 462.91158681125006 124.11613122750002" stroke-miterlimit="10" stroke-width="3.2042129550000005" stroke-dasharray=""/></g><g><g/><text fill="black" stroke="none" font-family="sans-serif" font-size="11pt" font-style="normal" font-weight="normal" text-decoration="normal" x="401.26463065625006" y="142.96444272750003" text-anchor="start" dominant-baseline="alphabetic" xml:space="preserve">Tumelo Admin</text></g><path fill="none" stroke="none"/><g><path fill="white" stroke="black" paint-order="fill stroke markers" d=" M 538.7511257100001 97.72849512750001 L 631.3536218212502 97.72849512750001 L 631.3536218212502 148.61893617750002 L 538.7511257100001 148.61893617750002 L 538.7511257100001 97.72849512750001 Z" stroke-miterlimit="10" stroke-width="3.01572984" stroke-dasharray=""/></g><g><g/><text fill="black" stroke="none" font-family="sans-serif" font-size="11pt" font-style="normal" font-weight="normal" text-decoration="normal" x="559.2015436875001" y="129.77062467750002" text-anchor="start" dominant-baseline="alphabetic" xml:space="preserve">Cognito</text></g><path fill="none" stroke="none"/><g><path fill="white" stroke="black" paint-order="fill stroke markers" d=" M 650.2019333212501 97.72849512750001 L 768.9152692762501 97.72849512750001 L 768.9152692762501 148.61893617750002 L 650.2019333212501 148.61893617750002 L 650.2019333212501 97.72849512750001 Z" stroke-miterlimit="10" stroke-width="3.01572984" stroke-dasharray=""/></g><g><g/><text fill="black" stroke="none" font-family="sans-serif" font-size="11pt" font-style="normal" font-weight="normal" text-decoration="normal" x="670.6523512987501" y="129.77062467750002" text-anchor="start" dominant-baseline="alphabetic" xml:space="preserve">Tumelo API</text></g></g><g><path fill="white" stroke="black" paint-order="fill stroke markers" d=" M 439.91664678125005 261.70880517750004 L 458.7649582812501 261.70880517750004 L 458.7649582812501 314.48407737750006 L 439.91664678125005 314.48407737750006 L 439.91664678125005 261.70880517750004" stroke-miterlimit="10" stroke-width="1.5706926250000002" stroke-dasharray=""/><path fill="white" stroke="black" paint-order="fill stroke markers" d=" M 575.6282180156252 446.42225787750004 L 594.4765295156251 446.42225787750004 L 594.4765295156251 499.19753007750006 L 575.6282180156252 499.19753007750006 L 575.6282180156252 446.42225787750004" stroke-miterlimit="10" stroke-width="1.5706926250000002" stroke-dasharray=""/><path fill="white" stroke="black" paint-order="fill stroke markers" d=" M 84.81740175000002 499.19753007750006 L 103.66571325000001 499.19753007750006 L 103.66571325000001 551.9728022775 L 84.81740175000002 551.9728022775 L 84.81740175000002 499.19753007750006" stroke-miterlimit="10" stroke-width="1.5706926250000002" stroke-dasharray=""/><path fill="white" stroke="black" paint-order="fill stroke markers" d=" M 575.6282180156252 551.9728022775 L 594.4765295156251 551.9728022775 L 594.4765295156251 604.7480744775 L 575.6282180156252 604.7480744775 L 575.6282180156252 551.9728022775" stroke-miterlimit="10" stroke-width="1.5706926250000002" stroke-dasharray=""/><path fill="white" stroke="black" paint-order="fill stroke markers" d=" M 575.6282180156252 736.6862549775001 L 594.4765295156251 736.6862549775001 L 594.4765295156251 789.4615271775001 L 575.6282180156252 789.4615271775001 L 575.6282180156252 736.6862549775001" stroke-miterlimit="10" stroke-width="1.5706926250000002" stroke-dasharray=""/><path fill="white" stroke="black" paint-order="fill stroke markers" d=" M 84.81740175000002 789.4615271775001 L 103.66571325000001 789.4615271775001 L 103.66571325000001 842.2367993775001 L 84.81740175000002 842.2367993775001 L 84.81740175000002 789.4615271775001" stroke-miterlimit="10" stroke-width="1.5706926250000002" stroke-dasharray=""/><path fill="white" stroke="black" paint-order="fill stroke markers" d=" M 700.1344455487501 842.2367993775001 L 718.98275704875 842.2367993775001 L 718.98275704875 895.0120715775001 L 700.1344455487501 895.0120715775001 L 700.1344455487501 842.2367993775001" stroke-miterlimit="10" stroke-width="1.5706926250000002" stroke-dasharray=""/><g><g><rect fill="white" stroke="none" x="175.73500971250002" y="237.20600022750003" width="182.68818485625" height="24.50280495"/></g><text fill="black" stroke="none" font-family="sans-serif" font-size="11pt" font-style="normal" font-weight="normal" text-decoration="normal" x="178.56225643750003" y="254.16948057750002" text-anchor="start" dominant-baseline="alphabetic" xml:space="preserve">Request access to Tumelo</text></g><g><path fill="none" stroke="black" paint-order="fill stroke markers" d=" M 94.24155750000001 261.70880517750004 L 436.77526153125007 261.70880517750004" stroke-miterlimit="10" stroke-width="1.5706926250000002" stroke-dasharray=""/><g transform="translate(439.91664678125005,261.70880517750004) translate(-439.91664678125005,-261.70880517750004)"><path fill="black" stroke="none" paint-order="stroke fill markers" d=" M 424.20972053125007 253.85534205250005 L 439.91664678125005 261.70880517750004 L 424.20972053125007 269.56226830250006 Z"/></g></g><g><g><rect fill="white" stroke="none" x="121.25747065000003" y="289.9812724275001" width="291.64326298125" height="24.50280495"/></g><text fill="black" stroke="none" font-family="sans-serif" font-size="11pt" font-style="normal" font-weight="normal" text-decoration="normal" x="124.08471737500003" y="306.94475277750007" text-anchor="start" dominant-baseline="alphabetic" xml:space="preserve">Access credentials for development habitat</text></g><g><path fill="none" stroke="black" paint-order="fill stroke markers" d=" M 439.91664678125005 314.48407737750006 L 97.38294275000001 314.48407737750006" stroke-miterlimit="10" stroke-width="1.5706926250000002" stroke-dasharray=""/><g transform="translate(94.24155750000001,314.48407737750006) translate(-94.24155750000001,-314.48407737750006)"><path fill="black" stroke="none" paint-order="stroke fill markers" d=" M 109.94848375000001 306.63061425250004 L 94.24155750000001 314.48407737750006 L 109.94848375000001 322.3375405025001 Z"/></g></g><g><g><rect fill="white" stroke="none" x="292.4982660328126" y="421.91945292750006" width="84.87324345" height="24.50280495"/></g><text fill="black" stroke="none" font-family="sans-serif" font-size="11pt" font-style="normal" font-weight="normal" text-decoration="normal" x="295.3255127578126" y="438.88293327750006" text-anchor="start" dominant-baseline="alphabetic" xml:space="preserve">Initiate Auth</text></g><g><path fill="none" stroke="black" paint-order="fill stroke markers" d=" M 94.24155750000001 446.42225787750004 L 572.4868327656252 446.42225787750004" stroke-miterlimit="10" stroke-width="1.5706926250000002" stroke-dasharray=""/><g transform="translate(575.6282180156252,446.42225787750004) translate(-575.6282180156252,-446.42225787750004)"><path fill="black" stroke="none" paint-order="stroke fill markers" d=" M 559.9212917656251 438.5687947525 L 575.6282180156252 446.42225787750004 L 559.9212917656251 454.27572100250006 Z"/></g></g><g><g><rect fill="white" stroke="none" x="285.53187711093756" y="474.6947251275001" width="108.23017704375" height="24.50280495"/></g><text fill="black" stroke="none" font-family="sans-serif" font-size="11pt" font-style="normal" font-weight="normal" text-decoration="normal" x="288.35912383593757" y="491.6582054775001" text-anchor="start" dominant-baseline="alphabetic" xml:space="preserve">Auth Challenge</text></g><g><path fill="none" stroke="black" paint-order="fill stroke markers" d=" M 575.6282180156252 499.19753007750006 L 106.80709850000001 499.19753007750006" stroke-miterlimit="10" stroke-width="1.5706926250000002" stroke-dasharray=""/><g transform="translate(103.66571325000001,499.19753007750006) translate(-103.66571325000001,-499.19753007750006)"><path fill="black" stroke="none" paint-order="stroke fill markers" d=" M 119.37263950000002 491.34406695250004 L 103.66571325000001 499.19753007750006 L 119.37263950000002 507.0509932025001 Z"/></g></g><g><g><rect fill="white" stroke="none" x="245.08754117343756" y="527.4699973275" width="189.11884891875" height="24.50280495"/></g><text fill="black" stroke="none" font-family="sans-serif" font-size="11pt" font-style="normal" font-weight="normal" text-decoration="normal" x="247.91478789843757" y="544.4334776775" text-anchor="start" dominant-baseline="alphabetic" xml:space="preserve">Respond to Auth Challenge</text></g><g><path fill="none" stroke="black" paint-order="fill stroke markers" d=" M 103.66571325000001 551.9728022775 L 572.4868327656252 551.9728022775" stroke-miterlimit="10" stroke-width="1.5706926250000002" stroke-dasharray=""/><g transform="translate(575.6282180156252,551.9728022775) translate(-575.6282180156252,-551.9728022775)"><path fill="black" stroke="none" paint-order="stroke fill markers" d=" M 559.9212917656251 544.1193391525001 L 575.6282180156252 551.9728022775 L 559.9212917656251 559.8262654025 Z"/></g></g><g><g><rect fill="white" stroke="none" x="280.8197992359376" y="580.2452695275" width="108.23017704375" height="24.50280495"/></g><text fill="black" stroke="none" font-family="sans-serif" font-size="11pt" font-style="normal" font-weight="normal" text-decoration="normal" x="283.6470459609376" y="597.2087498775" text-anchor="start" dominant-baseline="alphabetic" xml:space="preserve">Auth Challenge</text></g><g><path fill="none" stroke="black" paint-order="fill stroke markers" d=" M 575.6282180156252 604.7480744775 L 97.38294275000001 604.7480744775" stroke-miterlimit="10" stroke-width="1.5706926250000002" stroke-dasharray=""/><g transform="translate(94.24155750000001,604.7480744775) translate(-94.24155750000001,-604.7480744775)"><path fill="black" stroke="none" paint-order="stroke fill markers" d=" M 109.94848375000001 596.8946113525001 L 94.24155750000001 604.7480744775 L 109.94848375000001 612.6015376025 Z"/></g></g><g><g><rect fill="white" stroke="none" x="292.4982660328126" y="712.1834500275" width="84.87324345" height="24.50280495"/></g><text fill="black" stroke="none" font-family="sans-serif" font-size="11pt" font-style="normal" font-weight="normal" text-decoration="normal" x="295.3255127578126" y="729.1469303775001" text-anchor="start" dominant-baseline="alphabetic" xml:space="preserve">Initiate Auth</text></g><g><path fill="none" stroke="black" paint-order="fill stroke markers" d=" M 94.24155750000001 736.6862549775001 L 572.4868327656252 736.6862549775001" stroke-miterlimit="10" stroke-width="1.5706926250000002" stroke-dasharray=""/><g transform="translate(575.6282180156252,736.6862549775001) translate(-575.6282180156252,-736.6862549775001)"><path fill="black" stroke="none" paint-order="stroke fill markers" d=" M 559.9212917656251 728.8327918525001 L 575.6282180156252 736.6862549775001 L 559.9212917656251 744.5397181025 Z"/></g></g><g><g><rect fill="white" stroke="none" x="307.22255093906256" y="764.9587222275001" width="64.8488293875" height="24.50280495"/></g><text fill="black" stroke="none" font-family="sans-serif" font-size="11pt" font-style="normal" font-weight="normal" text-decoration="normal" x="310.04979766406257" y="781.9222025775001" text-anchor="start" dominant-baseline="alphabetic" xml:space="preserve">ID Token</text></g><g><path fill="none" stroke="black" paint-order="fill stroke markers" d=" M 575.6282180156252 789.4615271775001 L 106.80709850000001 789.4615271775001" stroke-miterlimit="10" stroke-width="1.5706926250000002" stroke-dasharray=""/><g transform="translate(103.66571325000001,789.4615271775001) translate(-103.66571325000001,-789.4615271775001)"><path fill="black" stroke="none" paint-order="stroke fill markers" d=" M 119.37263950000002 781.6080640525001 L 103.66571325000001 789.4615271775001 L 119.37263950000002 797.3149903025001 Z"/></g></g><g><g><rect fill="white" stroke="none" x="353.6333795493751" y="817.7339944275001" width="96.5333997" height="24.50280495"/></g><text fill="black" stroke="none" font-family="sans-serif" font-size="11pt" font-style="normal" font-weight="normal" text-decoration="normal" x="356.4606262743751" y="834.6974747775001" text-anchor="start" dominant-baseline="alphabetic" xml:space="preserve">Make request</text></g><g><path fill="none" stroke="black" paint-order="fill stroke markers" d=" M 103.66571325000001 842.2367993775001 L 696.9930602987502 842.2367993775001" stroke-miterlimit="10" stroke-width="1.5706926250000002" stroke-dasharray=""/><g transform="translate(700.1344455487501,842.2367993775001) translate(-700.1344455487501,-842.2367993775001)"><path fill="black" stroke="none" paint-order="stroke fill markers" d=" M 684.4275192987501 834.3833362525002 L 700.1344455487501 842.2367993775001 L 684.4275192987501 850.0902625025001 Z"/></g></g><g><g><rect fill="white" stroke="none" x="360.58878214312506" y="870.5092666275001" width="73.1984387625" height="24.50280495"/></g><text fill="black" stroke="none" font-family="sans-serif" font-size="11pt" font-style="normal" font-weight="normal" text-decoration="normal" x="363.41602886812507" y="887.4727469775002" text-anchor="start" dominant-baseline="alphabetic" xml:space="preserve">Response</text></g><g><path fill="none" stroke="black" paint-order="fill stroke markers" d=" M 700.1344455487501 895.0120715775001 L 97.38294275000001 895.0120715775001" stroke-miterlimit="10" stroke-width="1.5706926250000002" stroke-dasharray=""/><g transform="translate(94.24155750000001,895.0120715775001) translate(-94.24155750000001,-895.0120715775001)"><path fill="black" stroke="none" paint-order="stroke fill markers" d=" M 109.94848375000001 887.1586084525002 L 94.24155750000001 895.0120715775001 L 109.94848375000001 902.8655347025001 Z"/></g></g><g><g/><path fill="none" stroke="black" paint-order="fill stroke markers" d=" M 28.272467250000005 186.3155591775 L 515.30989278125 186.3155591775 L 515.30989278125 342.75654462750003 L 28.272467250000005 342.75654462750003 L 28.272467250000005 186.3155591775 Z" stroke-miterlimit="10" stroke-width="2.6926159285714286" stroke-dasharray=""/><path fill="white" stroke="black" paint-order="fill stroke markers" d=" M 28.272467250000005 186.3155591775 L 28.272467250000005 208.93353297750002 L 100.65073087500001 208.93353297750002 L 111.959717775 197.6245460775 L 111.959717775 186.3155591775 L 28.272467250000005 186.3155591775" stroke-miterlimit="10" stroke-width="2.6926159285714286" stroke-dasharray=""/><text fill="black" stroke="none" font-family="sans-serif" font-size="8.8pt" font-style="normal" font-weight="bold" text-decoration="normal" x="47.12077875000001" y="201.39420837750004" text-anchor="start" dominant-baseline="alphabetic" xml:space="preserve">step 1</text><text fill="black" stroke="none" font-family="sans-serif" font-size="8.8pt" font-style="normal" font-weight="bold" text-decoration="normal" x="130.808029275" y="201.39420837750004" text-anchor="start" dominant-baseline="alphabetic" xml:space="preserve">[Set up - via email]</text></g><g><g/><path fill="none" stroke="black" paint-order="fill stroke markers" d=" M 18.848311500000005 371.0290118775 L 651.0214640156252 371.0290118775 L 651.0214640156252 633.0205417275 L 18.848311500000005 633.0205417275 L 18.848311500000005 371.0290118775 Z" stroke-miterlimit="10" stroke-width="2.6926159285714286" stroke-dasharray=""/><path fill="white" stroke="black" paint-order="fill stroke markers" d=" M 18.848311500000005 371.0290118775 L 18.848311500000005 393.6469856775 L 91.22657512500001 393.6469856775 L 102.53556202500002 382.3379987775 L 102.53556202500002 371.0290118775 L 18.848311500000005 371.0290118775" stroke-miterlimit="10" stroke-width="2.6926159285714286" stroke-dasharray=""/><text fill="black" stroke="none" font-family="sans-serif" font-size="8.8pt" font-style="normal" font-weight="bold" text-decoration="normal" x="37.696623" y="386.10766107750004" text-anchor="start" dominant-baseline="alphabetic" xml:space="preserve">step 2</text><text fill="black" stroke="none" font-family="sans-serif" font-size="8.8pt" font-style="normal" font-weight="bold" text-decoration="normal" x="121.38387352500001" y="386.10766107750004" text-anchor="start" dominant-baseline="alphabetic" xml:space="preserve">[First time sign up]</text></g><g><g/><path fill="none" stroke="black" paint-order="fill stroke markers" d=" M 18.848311500000005 661.2930089775001 L 775.5276915487501 661.2930089775001 L 775.5276915487501 923.2845388275001 L 18.848311500000005 923.2845388275001 L 18.848311500000005 661.2930089775001 Z" stroke-miterlimit="10" stroke-width="2.6926159285714286" stroke-dasharray=""/><path fill="white" stroke="black" paint-order="fill stroke markers" d=" M 18.848311500000005 661.2930089775001 L 18.848311500000005 683.9109827775001 L 91.22657512500001 683.9109827775001 L 102.53556202500002 672.6019958775001 L 102.53556202500002 661.2930089775001 L 18.848311500000005 661.2930089775001" stroke-miterlimit="10" stroke-width="2.6926159285714286" stroke-dasharray=""/><text fill="black" stroke="none" font-family="sans-serif" font-size="8.8pt" font-style="normal" font-weight="bold" text-decoration="normal" x="37.696623" y="676.3716581775001" text-anchor="start" dominant-baseline="alphabetic" xml:space="preserve">step 3</text><text fill="black" stroke="none" font-family="sans-serif" font-size="8.8pt" font-style="normal" font-weight="bold" text-decoration="normal" x="121.38387352500001" y="676.3716581775001" text-anchor="start" dominant-baseline="alphabetic" xml:space="preserve">[Getting an access token and making a request]</text></g></g><g/><g/><g/><g/></g></svg>